<svg width="800" height="117" xmlns="http://www.w3.org/2000/svg"><g fill="none" fill-rule="evenodd"><path d="M297.586 103.979v-6.093H278.6V86.933h17.477V80.84H278.6V69.947h18.829v-6.094h-26.097v40.126h26.254zm14.047 0V86.346c0-4.35 2.626-6.858 6.368-6.858 3.664 0 5.858 2.41 5.858 6.427v18.064h7.093V84.817c.02-7.21-4.095-11.324-10.306-11.324-4.506 0-7.602 2.155-8.973 5.505h-.353v-5.113h-6.78v30.094h7.093zm37.951.411c2.018-.059 3.41-.45 4.173-.705l-1.195-5.545a8.843 8.843 0 01-2.077.275c-1.783 0-3.213-.627-3.213-3.488V79.371h5.937v-5.486h-5.937v-7.21h-7.092v7.21h-4.272v5.486h4.272v16.732c-.04 5.662 4.075 8.444 9.404 8.287zm22.884.177c7.014 0 11.834-3.43 13.088-8.66l-6.622-.745c-.96 2.547-3.312 3.88-6.368 3.88-4.585 0-7.621-3.018-7.68-8.17h20.964v-2.175c0-10.56-6.348-15.204-13.754-15.204-8.62 0-14.244 6.328-14.244 15.615 0 9.444 5.545 15.459 14.616 15.459zm6.583-18.476h-14.146c.216-3.84 3.057-7.073 7.289-7.073 4.075 0 6.818 2.978 6.857 7.073zm19.886 17.888V86.287c0-3.82 2.88-6.524 6.78-6.524 1.195 0 2.684.215 3.291.41V73.65c-.647-.118-1.763-.196-2.547-.196-3.448 0-6.328 1.959-7.426 5.446h-.313v-5.015h-6.877v30.094h7.092zm21.885 11.285V99.237h.294c1.117 2.195 3.448 5.27 8.62 5.27 7.093 0 12.403-5.622 12.403-15.536 0-10.031-5.466-15.478-12.422-15.478-5.31 0-7.523 3.193-8.6 5.368h-.412v-4.976h-6.975v41.379h7.092zm6.936-16.575c-4.526 0-7.073-3.919-7.073-9.757 0-5.839 2.508-9.62 7.073-9.62 4.722 0 7.151 4.016 7.151 9.62 0 5.642-2.468 9.757-7.151 9.757zm27.527 5.29V86.287c0-3.82 2.88-6.524 6.78-6.524 1.195 0 2.684.215 3.291.41V73.65c-.647-.118-1.763-.196-2.547-.196-3.448 0-6.328 1.959-7.426 5.446h-.313v-5.015h-6.877v30.094h7.092zm18.359-34.365c2.253 0 4.094-1.725 4.094-3.84 0-2.136-1.841-3.86-4.094-3.86-2.273 0-4.115 1.724-4.115 3.86 0 2.115 1.842 3.84 4.115 3.84zm3.526 34.365V73.885h-7.092v30.094h7.092zm18.868.588c7.523 0 12.833-3.9 12.852-9.6-.02-4.291-2.782-6.917-8.464-8.151l-5.133-1.097c-3.056-.686-4.27-1.744-4.251-3.488-.02-2.037 2.233-3.448 5.192-3.448 3.272 0 4.996 1.783 5.544 3.762l6.466-.706c-.98-5.094-5.055-8.346-12.108-8.346-7.25 0-12.187 3.566-12.167 9.13-.02 4.389 2.684 7.288 8.464 8.484l5.133 1.077c2.763.607 4.056 1.724 4.056 3.429 0 2.057-2.234 3.605-5.604 3.605-3.252 0-5.368-1.41-5.976-4.115l-6.916.667c.882 5.525 5.525 8.797 12.912 8.797zm32.033 0c7.015 0 11.834-3.43 13.088-8.66l-6.622-.745c-.96 2.547-3.311 3.88-6.368 3.88-4.584 0-7.621-3.018-7.68-8.17h20.964v-2.175c0-10.56-6.348-15.204-13.754-15.204-8.62 0-14.243 6.328-14.243 15.615 0 9.444 5.544 15.459 14.615 15.459zm6.584-18.476h-14.146c.215-3.84 3.056-7.073 7.288-7.073 4.075 0 6.818 2.978 6.858 7.073z" fill="#00C985" fill-rule="nonzero"/><path d="M544.35 6.366c8.185 0 16.097 5.116 19.012 12.128l.133.33.04.125a1.057 1.057 0 01-.91 1.31l-.115.006h-8.62a2.122 2.122 0 01-1.753-.925 8.143 8.143 0 00-.252-.351c-1.87-2.443-4.56-3.817-7.8-3.817-6.313 0-10.716 5.093-10.716 11.406 0 6.525 4.138 11.777 10.769 11.777 4.562 0 8.01-2.178 9.303-6.04l.087-.273h-9.602a2.122 2.122 0 01-2.117-1.97l-.005-.152v-3.766c0-1.121.869-2.04 1.97-2.117l.152-.005h19.098c1.12 0 2.039.87 2.117 1.97l.005.152v.106c0 10.557-7.745 20.902-20.955 20.902-11.618 0-20.849-9.072-20.849-20.584 0-11.883 9.602-20.212 21.008-20.212zm89.602 0c2.6 0 4.88.584 6.95 1.645 3.94 2.044 5.957 4.933 6.23 9.636v.05c0 .48-.39.87-.87.87h-8.168c-.479 0-.895-.33-1.004-.795l-.057-.232c-.54-2.034-1.644-2.792-3.346-2.792-1.857 0-3.448 1.326-3.448 3.077 0 2.334 2.122 3.395 6.419 5.252 8.647 3.713 10.822 6.843 10.822 11.99 0 7.586-5.199 12.042-13.687 12.042-8.541 0-14.164-4.456-14.164-12.891l.006-.107a.849.849 0 01.842-.742h8.433c.378 0 .693.289.726.665l.026.257c.315 2.711 1.83 4.436 4.078 4.436a3.747 3.747 0 003.767-3.767c0-3.13-4.35-4.51-7.905-5.941-6.419-2.6-9.337-5.995-9.337-11.088 0-6.684 6.472-11.565 13.687-11.565zm106.006 0c5.41 0 9.76 1.485 13.687 4.828 3.04 2.605 5.084 5.495 6.104 8.67l.122.398.03.126a1.37 1.37 0 01-1.213 1.622l-.132.006h-7.426a2.122 2.122 0 01-1.897-1.171 7.937 7.937 0 00-.173-.328c-1.901-3.384-5.2-5.345-8.784-5.345-6.26 0-10.504 5.359-10.504 11.46 0 6.365 4.35 11.67 10.557 11.67 3.577 0 6.683-1.801 8.777-5.365l.1-.176a2.122 2.122 0 011.69-1.084l.165-.006h7.669a1.155 1.155 0 011.127 1.401l-.033.122-.133.381c-2.98 8.337-10.612 13.534-19.256 13.534-5.464 0-10.61-1.91-14.642-5.889-4.244-4.138-6.048-9.125-6.048-15.066 0-10.398 8.966-19.788 20.213-19.788zm-155.396 0c2.6 0 4.881.584 6.95 1.645 3.836 1.99 5.85 4.782 6.204 9.268l.025.368.001.025v.025c0 .444-.332.81-.76.864l-.11.007h-8.168c-.439 0-.825-.277-.97-.683l-.034-.113-.057-.232c-.54-2.034-1.644-2.792-3.346-2.792-1.857 0-3.448 1.326-3.448 3.077 0 2.334 2.122 3.395 6.419 5.252 8.647 3.713 10.822 6.843 10.822 11.99 0 7.586-5.199 12.042-13.687 12.042-8.422 0-14.008-4.334-14.161-12.542l-.003-.35.006-.106a.85.85 0 01.736-.736l.107-.006h8.432c.344 0 .636.239.71.565l.016.1.026.257c.315 2.711 1.83 4.436 4.078 4.436a3.747 3.747 0 003.767-3.767c0-2.504-2.784-3.887-5.718-5.074l-.49-.196c-.572-.227-1.144-.449-1.697-.671-6.419-2.6-9.337-5.995-9.337-11.088 0-6.684 6.472-11.565 13.687-11.565zm90.133.743c1.172 0 2.122.95 2.122 2.122v4.562c0 1.172-.95 2.122-2.122 2.122h-5.57v28.329c0 1.172-.95 2.122-2.122 2.122h-5.783a2.122 2.122 0 01-2.122-2.122V15.915h-5.623a2.122 2.122 0 01-2.122-2.122V9.231c0-1.172.95-2.122 2.122-2.122zm26.093 0c.87 0 1.65.53 1.972 1.338l13.91 35.014a2.122 2.122 0 01-1.971 2.905h-6.224c-.912 0-1.721-.582-2.012-1.445l-1.423-4.231h-13.634l-1.56 4.28a2.122 2.122 0 01-1.994 1.396h-6.146a2.122 2.122 0 01-1.97-2.912L693.79 8.44a2.122 2.122 0 011.97-1.331zm75.764 0c1.172 0 2.122.95 2.122 2.122v15.544l.048-.007a.192.192 0 00.114-.083l10.408-16.582a2.122 2.122 0 011.797-.994h5.374a2.122 2.122 0 011.768 3.296l-10.809 16.28 11.494 16.338a2.122 2.122 0 01-1.735 3.343h-6.467a2.122 2.122 0 01-1.794-.99L778.78 29.39l-.041.008a.106.106 0 00-.065.098v14.748c0 1.172-.95 2.122-2.122 2.122h-5.783a2.122 2.122 0 01-2.122-2.122V9.231c0-1.172.95-2.122 2.122-2.122zm-286.438 0c.68 0 1.315.325 1.713.87l.094.14 14.657 23.817-.387-22.669v-.036c0-1.121.869-2.04 1.97-2.117l.151-.005h5.322c1.121 0 2.039.869 2.117 1.97l.005.152v35.013c0 1.121-.87 2.039-1.97 2.117l-.152.005h-5.405c-.674 0-1.304-.32-1.703-.855l-.094-.138-14.443-22.986.242 21.834v.023c0 1.121-.87 2.039-1.97 2.117l-.152.005h-5.334a2.122 2.122 0 01-2.117-1.97l-.005-.152V9.231c0-1.121.869-2.04 1.97-2.117l.152-.005h5.339zm-195.154 0c1.121 0 2.04.869 2.117 1.97l.005.152v4.562c0 1.121-.869 2.04-1.97 2.117l-.152.005h-5.57v28.329c0 1.121-.87 2.039-1.97 2.117l-.152.005h-5.783a2.122 2.122 0 01-2.116-1.97l-.006-.152V15.915h-5.623a2.122 2.122 0 01-2.117-1.97l-.005-.152V9.231c0-1.121.87-2.04 1.97-2.117l.152-.005h21.22zm16.18 0c1.122 0 2.04.869 2.117 1.97l.006.152v12.626H326.1V9.23c0-1.121.869-2.04 1.97-2.117l.152-.005h5.782c1.121 0 2.04.869 2.117 1.97l.005.152v35.013c0 1.121-.869 2.039-1.97 2.117l-.152.005h-5.782a2.122 2.122 0 01-2.117-1.97l-.005-.152v-13.58h-12.838v13.58c0 1.121-.87 2.039-1.97 2.117l-.152.005h-5.783a2.122 2.122 0 01-2.117-1.97l-.005-.152V9.231c0-1.121.87-2.04 1.97-2.117l.152-.005h5.783zm53.9 0c1.12 0 2.039.869 2.116 1.97l.006.152v4.562c0 1.121-.87 2.04-1.97 2.117l-.152.005h-10.08v6.1h9.708c1.121 0 2.04.87 2.117 1.971l.005.152V28.7c0 1.121-.869 2.04-1.97 2.117l-.152.005h-9.708v6.738h10.08c1.12 0 2.039.869 2.116 1.97l.006.152v4.562c0 1.121-.87 2.039-1.97 2.117l-.152.005h-17.56a2.122 2.122 0 01-2.117-1.97l-.005-.152V9.231c0-1.121.87-2.04 1.97-2.117l.152-.005h17.56zm47.957 0c1.121 0 2.04.869 2.117 1.97l.005.152v4.562c0 1.121-.869 2.04-1.97 2.117l-.152.005h-5.57v28.329c0 1.121-.87 2.039-1.97 2.117l-.152.005h-5.782a2.122 2.122 0 01-2.117-1.97l-.005-.152V15.915h-5.624a2.122 2.122 0 01-2.116-1.97l-.006-.152V9.231c0-1.121.87-2.04 1.97-2.117l.152-.005h21.22zm16.18 0c1.122 0 2.04.869 2.117 1.97l.006.152v12.626h12.838V9.23c0-1.121.87-2.04 1.97-2.117l.152-.005h5.782c1.121 0 2.04.869 2.117 1.97l.005.152v35.013c0 1.121-.869 2.039-1.97 2.117l-.152.005h-5.782a2.122 2.122 0 01-2.117-1.97l-.005-.152v-13.58H431.3v13.58c0 1.121-.87 2.039-1.97 2.117l-.152.005h-5.783a2.122 2.122 0 01-2.116-1.97l-.006-.152V9.231c0-1.121.87-2.04 1.97-2.117l.152-.005h5.783zm42.123 0c1.12 0 2.039.869 2.116 1.97l.006.152v35.013c0 1.121-.87 2.039-1.97 2.117l-.152.005h-5.783a2.122 2.122 0 01-2.116-1.97l-.006-.152V9.231c0-1.121.87-2.04 1.97-2.117l.152-.005h5.783zM698.196 19.31l-4.032 13.422h8.223l-4.032-13.369-.159-.053z" fill="#000" fill-rule="nonzero"/><path d="M72.79 4.21c.08.24.147.484.198.731l.645 3.099-27.09 9.348c-4.926 1.7-7.811 6.823-6.747 11.938l15.867 76.257-30.257 10.44c-.585.202-1.18.31-1.767.332l-.22.004a6.164 6.164 0 01-5.83-4.21 6.268 6.268 0 01-.199-.732L.132 28.48c-.64-3.075 1.092-6.149 4.035-7.164L64.973.336A6.103 6.103 0 0166.74.004L66.96 0a6.164 6.164 0 015.83 4.21zm1.696 7.93l15.76 75.739c.64 3.075-1.091 6.148-4.035 7.164l-26.588 9.174-15.76-75.737c-.639-3.075 1.092-6.149 4.036-7.164l26.587-9.175z" fill="#0047FF"/><path d="M116.52 4.21c.082.24.148.484.2.731l.701 3.373-26.297 9.074c-4.926 1.7-7.812 6.823-6.747 11.938l15.81 75.984-31.05 10.713c-.585.202-1.179.31-1.767.332l-.22.004a6.164 6.164 0 01-5.83-4.21 6.268 6.268 0 01-.198-.732L43.864 28.48c-.64-3.075 1.091-6.149 4.035-7.164L108.704.336a6.103 6.103 0 011.767-.332l.22-.004a6.164 6.164 0 015.83 4.21zm1.754 8.205l15.704 75.464c.64 3.075-1.092 6.148-4.035 7.164l-25.796 8.9L88.445 28.48c-.64-3.075 1.091-6.149 4.035-7.164l25.794-8.901z" fill="#1E5DFF"/><path d="M161.102 4.21c.08.24.147.484.198.731l.645 3.099-27.09 9.348c-4.926 1.7-7.811 6.823-6.747 11.938l15.867 76.257-30.257 10.44c-.585.202-1.18.31-1.767.332l-.22.004a6.164 6.164 0 01-5.83-4.21 6.268 6.268 0 01-.198-.732L88.445 28.48c-.64-3.075 1.091-6.149 4.035-7.164L153.285.336a6.103 6.103 0 011.767-.332l.22-.004a6.164 6.164 0 015.83 4.21zm1.696 7.93l15.76 75.739c.64 3.075-1.091 6.148-4.035 7.164l-26.588 9.174-15.759-75.737c-.64-3.075 1.091-6.149 4.035-7.164l26.587-9.175z" fill="#3D73FF"/><path d="M204.833 4.21c.08.24.147.484.199.731L222.29 87.88c.64 3.075-1.092 6.148-4.035 7.164l-60.805 20.98c-.585.202-1.18.31-1.767.332l-.22.004a6.164 6.164 0 01-5.83-4.21 6.268 6.268 0 01-.199-.732L132.176 28.48c-.64-3.075 1.091-6.149 4.035-7.164L197.016.336a6.103 6.103 0 011.767-.332l.22-.004a6.164 6.164 0 015.83 4.21z" fill="#6C95FF"/></g></svg>