<svg viewBox="0 0 936 650" xmlns="http://www.w3.org/2000/svg"><defs><linearGradient id="a" x1="50%" x2="50%" y2="100%"><stop stop-color="#3C8EFF" offset="0"/><stop stop-color="#002FE1" offset="1"/></linearGradient><linearGradient id="b" x1="50%" x2="50%" y1="100%" y2="38.054%"><stop stop-color="#87CCFF" offset="0"/><stop stop-color="#DDF0FF" offset="1"/></linearGradient></defs><g fill="none" fill-rule="evenodd"><path d="M56.086 486.07c-.02173 4.6219 3.746 8.3687 8.3552 8.3687h719.4c4.6362 0 8.4695-3.7585 8.5614-8.3646l.83998-42.118c.046261-2.3196 1.4366-5.5489 3.033-7.1406l53.116-52.96c3.2838-3.2742 5.9459-9.6325 5.9459-14.276v-245.33c0-4.6104-2.6715-11.012-5.8975-14.228l-51.51-51.358c-1.6304-1.6256-2.9884-4.7859-3.0341-7.1056l-.84415-42.864c-.090821-4.6118-3.9464-8.3503-8.5513-8.3503h-718.73c-4.6319 0-8.4046 3.7631-8.4263 8.3687l-2.2542 477.36z" fill="url(#a)" transform="rotate(-11 849.34367016 78.4370584)"/><path d="M743.19 359.2c12.884 0 23.383 10.389 23.383 23.282v41.985c0 12.882-10.474 23.282-23.383 23.282H308.51c-12.884 0-23.383-10.389-23.383-23.282v-41.985c0-12.882 10.474-23.282 23.383-23.282h434.68zm-586.54 27.963c11.582 0 20.972 9.3895 20.972 20.972 0 11.582-9.3895 20.972-20.972 20.972h-37.518c-11.582 0-20.972-9.3895-20.972-20.972 0-11.582 9.3895-20.972 20.972-20.972h37.518zm586.54-9.3209H308.51c-2.6078 0-4.6864 2.0773-4.6864 4.6398v41.985c0 2.5667 2.0982 4.6398 4.6864 4.6398h434.68c2.6078 0 4.6864-2.0773 4.6864-4.6398v-41.985c0-2.5667-2.0982-4.6398-4.6864-4.6398zm-404.31 18.642c3.8722 0 7.0113 3.1298 7.0113 6.9907 0 3.8608-3.1391 6.9907-7.0113 6.9907-3.8722 0-7.0113-3.1298-7.0113-6.9907 0-3.8608 3.1391-6.9907 7.0113-6.9907zm46.742 0c3.8722 0 7.0113 3.1298 7.0113 6.9907 0 3.8608-3.1391 6.9907-7.0113 6.9907s-7.0113-3.1298-7.0113-6.9907c0-3.8608 3.1391-6.9907 7.0113-6.9907zm46.742 0c3.8722 0 7.0113 3.1298 7.0113 6.9907 0 3.8608-3.1391 6.9907-7.0113 6.9907-3.8722 0-7.0113-3.1298-7.0113-6.9907 0-3.8608 3.1391-6.9907 7.0113-6.9907zm46.742 0c3.8722 0 7.0113 3.1298 7.0113 6.9907 0 3.8608-3.1391 6.9907-7.0113 6.9907s-7.0113-3.1298-7.0113-6.9907c0-3.8608 3.1391-6.9907 7.0113-6.9907zm46.742 0c3.8722 0 7.0113 3.1298 7.0113 6.9907 0 3.8608-3.1391 6.9907-7.0113 6.9907s-7.0113-3.1298-7.0113-6.9907c0-3.8608 3.1391-6.9907 7.0113-6.9907zm46.742 0c3.8722 0 7.0113 3.1298 7.0113 6.9907 0 3.8608-3.1391 6.9907-7.0113 6.9907s-7.0113-3.1298-7.0113-6.9907c0-3.8608 3.1391-6.9907 7.0113-6.9907zm46.742 0c3.8722 0 7.0113 3.1298 7.0113 6.9907 0 3.8608-3.1391 6.9907-7.0113 6.9907-3.8722 0-7.0113-3.1298-7.0113-6.9907 0-3.8608 3.1391-6.9907 7.0113-6.9907zm46.742 0c3.8722 0 7.0113 3.1298 7.0113 6.9907 0 3.8608-3.1391 6.9907-7.0113 6.9907-3.8722 0-7.0113-3.1298-7.0113-6.9907 0-3.8608 3.1391-6.9907 7.0113-6.9907zm46.742 0c3.8722 0 7.0113 3.1298 7.0113 6.9907 0 3.8608-3.1391 6.9907-7.0113 6.9907-3.8722 0-7.0113-3.1298-7.0113-6.9907 0-3.8608 3.1391-6.9907 7.0113-6.9907zm-600.64-172.44c12.912 0 23.379 11.463 23.379 25.608v51.313c0 14.143-10.468 25.608-23.379 25.608H23.383c-12.912 0-23.379-11.463-23.379-25.608v-51.313c0-14.143 10.468-25.608 23.379-25.608h88.793zm142.63 9.3209c11.582 0 20.972 9.3895 20.972 20.972s-9.3895 20.972-20.972 20.972h-37.518c-11.582 0-20.972-9.3895-20.972-20.972s9.3895-20.972 20.972-20.972h37.518zm-142.63-144.47c12.912 0 23.379 11.463 23.379 25.608v51.313c0 14.143-10.468 25.608-23.379 25.608H23.383c-12.912 0-23.379-11.463-23.379-25.608v-51.313c0-14.143 10.468-25.608 23.379-25.608h88.793zm645.02-13.981c5.1787 0 9.3768 4.1861 9.3768 9.278v74.653c0 5.1241-4.1812 9.278-9.3768 9.278h-331.81c-5.1787 0-9.3768-4.1861-9.3768-9.278V84.192c0-5.1241 4.1812-9.278 9.3768-9.278h331.81zm-525.82 13.981c19.361 0 35.057 15.649 35.057 34.953s-15.695 34.953-35.057 34.953c-19.361 0-35.057-15.649-35.057-34.953s15.695-34.953 35.057-34.953zm93.484 0c19.361 0 35.057 15.649 35.057 34.953s-15.695 34.953-35.057 34.953-35.057-15.649-35.057-34.953 15.695-34.953 35.057-34.953z" fill="url(#b)" fill-rule="nonzero" transform="rotate(-11 849.34367016 78.4370584)"/></g></svg>