<svg viewBox="0 0 945 630" xmlns="http://www.w3.org/2000/svg"><defs><linearGradient id="a" x1="50%" x2="50%" y2="100%"><stop stop-color="#3C8EFF" offset="0"/><stop stop-color="#002FE1" offset="1"/></linearGradient><linearGradient id="b" x1="50%" x2="50%" y1="100%" y2="38.054%"><stop stop-color="#87CCFF" offset="0"/><stop stop-color="#DDF0FF" offset="1"/></linearGradient></defs><g fill="none" fill-rule="evenodd"><path d="M109.37 349.96l72.564 72.566 72.564-72.564h18.141c89.978 0 163.27 73.286 163.27 163.27v38.413c0 10.178-8.2509 18.429-18.429 18.429l-345.08-.000832.0001928-43.391c0-60.301-28.259-114.15-72.182-148.91 26.023-17.554 57.352-27.813 91.017-27.813h18.141z" fill="url(#a)" transform="translate(508.99 36.195)"/><path d="M254.49 290.46v95.785l-72.564 72.564-72.564-72.564V290.46l26.121 12.698c28.664 13.787 64.219 13.787 92.884 0l26.123-12.698z" fill="url(#b)" fill-rule="nonzero" transform="translate(508.99 36.195)"/><path d="M236.35 23.42c-24.671 0-47.167 9.4338-63.856 26.486-21.405 21.044-55.51 46.078-99.05 46.078L36.8 132.267v72.564c0 55.873 32.654 107.03 82.724 130.98 19.229 9.4338 40.273 14.15 62.404 14.15s43.175-4.7178 62.043-14.15c50.431-23.945 83.085-75.104 83.085-130.98v-54.423c0-50.071-40.636-126.99-90.706-126.99z" fill="url(#b)" fill-rule="nonzero" transform="translate(508.99 36.195)"/><path transform="matrix(-1 0 0 1 872.85 36.195)" d="M327.06 145.13v54.423c0-50.07-27.847-33.678-88.283-43.532-40.092-6.5372-70.731-33.642-108.24-38.913-25.004-3.514-56.249 5.827-93.736 28.023 0-80.183 64.946-145.13 145.13-145.13s145.13 64.946 145.13 145.13z" fill="url(#a)"/><path d="M20.74 629.79c-11.244 0-20.36-9.1153-20.36-20.36v-42.438c0-99.408 80.968-180.37 180.37-180.37h20.042l80.166 80.168 80.166-80.166h20.042c99.404 0 180.37 80.964 180.37 180.37v42.438c0 11.244-9.1153 20.36-20.36 20.36H20.736z" fill="url(#a)"/><path d="M361.13 320.88V426.7l-80.166 80.166-80.166-80.166V320.88l28.858 14.028c31.667 15.231 70.947 15.231 102.61 0l28.86-14.028z" fill="url(#b)" fill-rule="nonzero"/><path d="M341.09 25.874c-27.255 0-52.108 10.422-70.546 29.261-23.648 23.249-61.325 50.905-109.43 50.905l-40.483 40.084v80.166c0 61.726 36.075 118.24 91.39 144.7 21.243 10.422 44.492 15.632 68.942 15.632s47.699-5.2121 68.543-15.632c55.714-26.453 91.789-82.972 91.789-144.7v-60.124c0-55.317-44.893-140.29-100.21-140.29z" fill="url(#b)" fill-rule="nonzero"/><path d="M441.29 160.33v60.124c0-55.315-44.893-100.21-100.21-100.21-22.406 0-43.197 7.0404-60.124 20.028-3.6607 2.8056-7.1483 5.8778-10.422 9.2331-23.65 23.249-61.327 50.905-109.43 50.905h-40.483v-40.082c0-88.583 71.749-160.33 160.33-160.33s160.33 71.749 160.33 160.33z" fill="url(#a)"/></g></svg>